<mxfile host="65bd71144e" modified="2021-01-01T11:18:03.324Z" agent="5.0 (Macintosh; Intel Mac OS X 11_0_0) AppleWebKit/537.36 (KHTML, like Gecko) Code/1.52.1 Chrome/83.0.4103.122 Electron/9.3.5 Safari/537.36" etag="1XMpJma1eO0-4CJnau0q" version="13.10.0" type="embed">
    <diagram id="VXLdp9_0gb5skO2kyKBa" name="Page-1">
        <mxGraphModel dx="602" dy="403" grid="1" gridSize="10" guides="1" tooltips="1" connect="1" arrows="1" fold="1" page="1" pageScale="1" pageWidth="827" pageHeight="1169" math="0" shadow="0">
            <root>
                <mxCell id="0"/>
                <mxCell id="1" parent="0"/>
                <mxCell id="nzUQvSkKueNvl9NMvaPP-20" style="edgeStyle=orthogonalEdgeStyle;rounded=0;orthogonalLoop=1;jettySize=auto;html=1;" parent="1" source="nzUQvSkKueNvl9NMvaPP-8" edge="1">
                    <mxGeometry relative="1" as="geometry">
                        <mxPoint x="471" y="250" as="targetPoint"/>
                    </mxGeometry>
                </mxCell>
                <mxCell id="nzUQvSkKueNvl9NMvaPP-21" value="Manage workflows&lt;br style=&quot;font-size: 10px&quot;&gt;(storage)" style="edgeLabel;html=1;align=center;verticalAlign=middle;resizable=0;points=[];fontSize=10;" parent="nzUQvSkKueNvl9NMvaPP-20" vertex="1" connectable="0">
                    <mxGeometry x="0.25" y="-1" relative="1" as="geometry">
                        <mxPoint x="-20" y="-1" as="offset"/>
                    </mxGeometry>
                </mxCell>
                <mxCell id="nzUQvSkKueNvl9NMvaPP-8" value="API + UI" style="rounded=1;whiteSpace=wrap;html=1;fillColor=#ffe6cc;strokeColor=#d79b00;sketch=1;" parent="1" vertex="1">
                    <mxGeometry x="277" y="230" width="80" height="40" as="geometry"/>
                </mxCell>
                <mxCell id="nzUQvSkKueNvl9NMvaPP-23" style="edgeStyle=orthogonalEdgeStyle;rounded=0;orthogonalLoop=1;jettySize=auto;html=1;entryX=0;entryY=0.5;entryDx=0;entryDy=0;" parent="1" source="nzUQvSkKueNvl9NMvaPP-34" target="nzUQvSkKueNvl9NMvaPP-8" edge="1">
                    <mxGeometry relative="1" as="geometry">
                        <mxPoint x="192" y="250" as="sourcePoint"/>
                    </mxGeometry>
                </mxCell>
                <mxCell id="nzUQvSkKueNvl9NMvaPP-24" value="Manage workflows&lt;br style=&quot;font-size: 10px&quot;&gt;(REST)" style="edgeLabel;html=1;align=center;verticalAlign=middle;resizable=0;points=[];fontSize=10;" parent="nzUQvSkKueNvl9NMvaPP-23" vertex="1" connectable="0">
                    <mxGeometry x="-0.0353" y="-3" relative="1" as="geometry">
                        <mxPoint y="-4" as="offset"/>
                    </mxGeometry>
                </mxCell>
                <mxCell id="nzUQvSkKueNvl9NMvaPP-27" value="Azure Storage" style="shape=datastore;whiteSpace=wrap;html=1;fontSize=16;sketch=1;fillColor=#f8cecc;strokeColor=#b85450;" parent="1" vertex="1">
                    <mxGeometry x="472" y="196" width="104" height="104" as="geometry"/>
                </mxCell>
                <mxCell id="nzUQvSkKueNvl9NMvaPP-34" value="UI&lt;br&gt;(browser)" style="rounded=1;whiteSpace=wrap;html=1;fillColor=#e1d5e7;strokeColor=#9673a6;sketch=1;" parent="1" vertex="1">
                    <mxGeometry x="77" y="230" width="80" height="40" as="geometry"/>
                </mxCell>
                <mxCell id="nzUQvSkKueNvl9NMvaPP-36" value="Manage workflows&lt;br&gt;Run workflows&lt;br&gt;(storage)" style="edgeStyle=orthogonalEdgeStyle;rounded=0;orthogonalLoop=1;jettySize=auto;html=1;fontSize=10;" parent="1" edge="1">
                    <mxGeometry relative="1" as="geometry">
                        <mxPoint x="524" y="191" as="targetPoint"/>
                        <mxPoint x="524" y="115" as="sourcePoint"/>
                    </mxGeometry>
                </mxCell>
                <mxCell id="nzUQvSkKueNvl9NMvaPP-35" value="Azure Durable Functions" style="rounded=1;whiteSpace=wrap;html=1;fillColor=#fff2cc;strokeColor=#d6b656;sketch=1;" parent="1" vertex="1">
                    <mxGeometry x="458" y="80" width="132" height="40" as="geometry"/>
                </mxCell>
            </root>
        </mxGraphModel>
    </diagram>
</mxfile>